<svg width="241" height="122" viewBox="0 0 241 122" fill="none" xmlns="http://www.w3.org/2000/svg">
    <path d="M1.0312 120.895L120.878 120.895L120.878 1.04791L1.0312 1.04791L1.0312 120.895Z"
        stroke="#EFDBD7" stroke-width="0.5" stroke-miterlimit="10" />
    <path
        d="M5.32984 1.06384C5.32984 15.8142 11.1894 29.9604 21.6195 40.3905C32.0496 50.8206 46.1958 56.6801 60.9461 56.6801H61.122C62.5923 56.6801 64.0306 56.6801 65.453 56.4884C65.3411 57.9267 65.2772 59.3651 65.2612 60.8194V60.9952C65.2824 75.7317 71.1513 89.8574 81.5791 100.27C92.0069 110.683 106.141 116.532 120.877 116.532V120.847C104.983 120.847 89.739 114.532 78.4997 103.293C67.2603 92.0539 60.9461 76.8101 60.9461 60.9153C45.0679 60.9111 29.8404 54.606 18.6068 43.3844C7.37326 32.1628 1.05193 16.942 1.03076 1.06384H5.32984Z"
        stroke="#EFDBD7" stroke-width="0.5" stroke-miterlimit="10" />
    <path
        d="M1.03101 94.0614C8.15187 94.0614 14.9811 96.8902 20.0163 101.925C25.0515 106.961 27.8803 113.79 27.8803 120.911H1.03101V94.0614Z"
        stroke="#EFDBD7" stroke-width="0.5" stroke-miterlimit="10" />
    <path
        d="M23.5334 120.911C23.5334 120.911 23.6612 114.646 21.1042 111.737C18.5471 108.828 14.1201 112.057 12.2503 113.335C10.3804 114.614 8.17496 115.461 6.67268 114.758C5.1704 114.054 6.20922 110.826 7.37588 109.036C8.54255 107.246 11.0676 104.018 10.3645 101.892C9.66126 99.7669 7.16815 97.897 1.11108 98.2166V120.911H23.5334Z"
        stroke="#EFDBD7" stroke-width="0.5" stroke-miterlimit="10" />
    <path
        d="M1.03101 115.285C2.5217 115.289 3.95015 115.883 5.00424 116.937C6.05832 117.991 6.65233 119.42 6.65655 120.911H1.03101V115.285Z"
        stroke="#EFDBD7" stroke-width="0.5" stroke-miterlimit="10" />
    <path
        d="M78.1431 109.532C78.1431 109.532 88.2276 119.121 98.1362 120.927H72.7253C74.4553 119.582 75.8464 117.851 76.7872 115.872C77.728 113.894 78.1924 111.722 78.1431 109.532Z"
        stroke="#EFDBD7" stroke-width="0.5" stroke-miterlimit="10" />
    <path
        d="M1.07989 88.8355C8.7984 88.8312 16.2556 91.6312 22.0639 96.7145L29.4155 89.3629C31.4428 87.3318 32.7567 84.698 33.1601 81.8568C33.5636 79.0156 33.0347 76.1201 31.6529 73.605L30.694 71.879C30.694 71.879 33.6826 69.9292 36.0958 71.879C37.3829 72.9289 38.5705 74.0952 39.6437 75.363C39.6916 75.4148 39.7497 75.4561 39.8143 75.4844C39.879 75.5127 39.9487 75.5273 40.0193 75.5273C40.0898 75.5273 40.1596 75.5127 40.2243 75.4844C40.2889 75.4561 40.347 75.4148 40.3949 75.363L40.6506 75.1073C41.5611 74.2004 42.656 73.4999 43.861 73.0532C45.066 72.6065 46.3529 72.424 47.6346 72.5182C48.1182 72.5551 48.6041 72.4842 49.057 72.3105L50.1917 71.8949L49.7601 73.0137C49.5954 73.4689 49.5248 73.9527 49.5524 74.436C49.6458 75.7077 49.466 76.9846 49.0249 78.1809C48.5839 79.3773 47.8918 80.4654 46.9953 81.3721L46.7236 81.6278C46.6718 81.6757 46.6305 81.7338 46.6022 81.7984C46.5739 81.863 46.5593 81.9328 46.5593 82.0034C46.5593 82.0739 46.5739 82.1437 46.6022 82.2083C46.6305 82.273 46.6718 82.331 46.7236 82.3789C47.9844 83.4602 49.1452 84.653 50.1917 85.9428C52.1414 88.3401 50.1917 91.3287 50.1917 91.3287L48.4816 90.3858C45.9678 88.9988 43.0712 88.467 40.2287 88.8706C37.3861 89.2742 34.752 90.5913 32.7237 92.6232L25.3561 99.9908C30.3189 105.776 33.051 113.145 33.0593 120.767H27.8812C27.8812 113.638 25.0491 106.8 20.0079 101.759C14.9667 96.7179 8.12934 93.8858 1 93.8858V88.8515L1.07989 88.8355Z"
        stroke="#EFDBD7" stroke-width="0.5" stroke-miterlimit="10" />
    <path
        d="M40.4114 120.911V114.694C40.4114 112.057 43.7835 109.212 48.4022 109.899C53.0209 110.586 53.4524 114.694 59.03 114.694C64.6077 114.694 66.8131 111.737 66.8131 109.004C66.8854 108.151 66.7689 107.292 66.4718 106.489C66.1747 105.685 65.7043 104.957 65.0941 104.356C64.4839 103.755 63.7488 103.296 62.941 103.011C62.1333 102.726 61.2727 102.622 60.4204 102.707C59.1358 102.603 57.8472 102.855 56.6967 103.436C55.5461 104.017 54.5784 104.904 53.8999 106C53.2652 104.358 52.9348 102.614 52.925 100.854C52.925 98.1687 56.9045 96.0591 60.1008 97.1458C60.1008 97.1458 58.0871 94.7166 56.5369 92.4472C55.1568 90.5332 54.5308 88.1774 54.7789 85.8308C54.9867 83.6573 57.8793 81.7075 58.8063 81.292C59.2979 83.871 60.2975 86.3266 61.7469 88.5157C63.9684 91.5682 67.6921 96.2189 69.9136 98.744C71.2723 100.482 72.1536 102.545 72.4703 104.729C72.7871 106.913 72.5283 109.141 71.7195 111.194C69.5935 115.52 66.0119 118.961 61.6031 120.911H40.4114Z"
        stroke="#EFDBD7" stroke-width="0.5" stroke-miterlimit="10" />
    <path
        d="M12.4741 44.3744C12.4741 44.3744 2.88503 34.2899 1.0791 24.3813V49.7922C2.41842 48.0565 4.14838 46.6612 6.12835 45.7198C8.10831 44.7785 10.2824 44.3175 12.4741 44.3744Z"
        stroke="#EFDBD7" stroke-width="0.5" stroke-miterlimit="10" />
    <path
        d="M1.11108 82.0433H7.32794C9.96492 82.0433 12.8097 78.6712 12.1224 74.0525C11.4352 69.4338 7.32794 68.9863 7.32794 63.4087C7.32794 57.8311 10.2686 55.8014 13.0174 55.8014C13.8606 55.7315 14.709 55.8458 15.5036 56.1365C16.2983 56.4271 17.0201 56.8872 17.6192 57.4847C18.2182 58.0823 18.6802 58.803 18.9729 59.5969C19.2655 60.3907 19.382 61.2388 19.3142 62.0822C19.4159 63.3642 19.1625 64.6495 18.5817 65.7969C18.0009 66.9443 17.1153 67.9096 16.022 68.5868C17.6622 69.2294 19.4065 69.5653 21.1681 69.5776C23.853 69.5776 25.9626 65.5982 24.8759 62.3859C24.8759 62.3859 27.3051 64.3996 29.5745 65.9498C31.4885 67.3299 33.8442 67.9558 36.1909 67.7078C38.3644 67.5 40.3301 64.6073 40.7297 63.6804C38.1506 63.1888 35.6951 62.1892 33.506 60.7397C30.4535 58.5183 25.8028 54.7946 23.2777 52.5731C21.5504 51.2123 19.4987 50.3243 17.3243 49.9965C15.1499 49.6687 12.9276 49.9122 10.8759 50.7032C6.54477 52.831 3.1037 56.4193 1.15903 60.8356L1.11108 82.0433Z"
        stroke="#EFDBD7" stroke-width="0.5" stroke-miterlimit="10" />
    <path
        d="M17.0607 1.22378C17.1072 12.834 21.7509 23.953 29.9756 32.1478C38.2003 40.3425 49.3362 44.9456 60.9465 44.9497C66.2885 44.954 71.5861 43.979 76.5766 42.073L77.4236 41.7374C78.0304 41.3856 78.5205 40.8633 78.833 40.2354C79.1456 39.6075 79.2668 38.9016 79.1816 38.2054C78.814 35.8721 75.6496 35.6963 75.6496 35.6963C76.5766 33.9223 79.2455 34.7534 79.2455 34.7534C78.9006 34.2603 78.7524 33.6561 78.83 33.0593C79.0253 32.2232 79.4849 31.4723 80.1405 30.9178C80.1888 32.0569 80.4603 33.1755 80.9396 34.21C81.1032 34.569 81.3468 34.8859 81.6516 35.1365C81.9565 35.387 82.3145 35.5645 82.6985 35.6555C83.0824 35.7465 83.4821 35.7485 83.867 35.6614C84.2518 35.5743 84.6116 35.4004 84.919 35.1529C88.0231 31.454 90.0911 26.9982 90.9121 22.2397C92.1907 13.5936 84.4395 7.4087 76.9761 6.6256V8.22377C76.9761 8.77478 76.7572 9.30323 76.3676 9.69286C75.978 10.0825 75.4495 10.3014 74.8985 10.3014C74.3475 10.3014 73.819 10.0825 73.4294 9.69286C73.0397 9.30323 72.8209 8.77478 72.8209 8.22377V6.86532C66.7798 8.59134 64.1588 16.1667 63.2319 19.9543C64.7738 20.7536 66.0959 21.9191 67.0823 23.3486C68.0688 24.778 68.6892 26.4277 68.8894 28.1529C69.4807 34.0022 66.6519 35.073 66.0606 37.742C65.6682 39.0775 65.6682 40.4977 66.0606 41.8333C66.0606 41.8333 61.4739 42.5205 60.1154 38.8127C58.757 35.105 59.8118 31.3493 58.6291 30.9018C57.4465 30.4543 55.8323 33.4429 52.9556 34.8173C50.6951 35.7439 48.3184 36.3569 45.8917 36.6392C45.8917 36.6392 44.2935 29.1118 47.0744 25.452C47.8822 24.6596 48.476 23.6754 48.8004 22.5913C48.8242 22.4807 48.8242 22.3663 48.8004 22.2557C48.767 22.1828 48.7183 22.118 48.6576 22.0656C48.5969 22.0133 48.5257 21.9745 48.4488 21.952C48.2969 21.9121 48.1372 21.9121 47.9853 21.952C47.2469 22.1823 46.5696 22.5755 46.0036 23.1027C45.3311 23.6333 44.5821 24.059 43.7821 24.3653C42.9874 24.617 42.153 24.72 41.3209 24.6689C39.132 24.6932 37.0125 23.9012 35.3757 22.4475C33.3741 20.2004 31.8419 17.576 30.8689 14.7283C30.8689 14.7283 36.079 16.8219 40.458 14.2648C43.6543 12.4589 48.5766 10.2854 52.7638 11.0685C56.951 11.8516 60.0195 16.758 60.0195 16.758C60.0195 16.758 61.9693 3.78085 72.8049 2.27857V1.06396H76.9601V2.42241C85.3825 3.07766 93.1656 7.69637 94.54 16.8059C95.0009 20.2 94.5199 23.6554 93.1496 26.7945C96.3459 23.8059 99.782 20.4018 100.757 17.8927C102.85 12.5388 102.211 7.53655 100.757 5.53884C101.58 5.39068 102.428 5.47356 103.206 5.77825C103.985 6.08295 104.664 6.59754 105.168 7.26486C105.969 8.28234 106.342 9.57255 106.207 10.8607C106.194 11.0355 106.239 11.2096 106.336 11.3561C106.432 11.5026 106.573 11.6134 106.739 11.6716C106.904 11.7297 107.084 11.7319 107.25 11.6778C107.417 11.6237 107.561 11.5163 107.661 11.3722C108.987 9.56623 109.563 7.02514 111.592 5.85847C112.527 5.33631 113.543 4.97438 114.597 4.7877C115.457 4.8013 116.316 4.75859 117.17 4.65985C117.067 5.50289 117.019 6.35169 117.026 7.20094C116.824 8.25094 116.463 9.26404 115.955 10.2055C114.789 12.2192 112.248 12.7945 110.442 14.137C110.306 14.2384 110.207 14.3802 110.157 14.5418C110.107 14.7035 110.11 14.8768 110.165 15.0367C110.221 15.1966 110.325 15.3349 110.464 15.4317C110.602 15.5285 110.768 15.5788 110.937 15.5753C112.232 15.4535 113.524 15.8309 114.549 16.6301C115.208 17.1295 115.717 17.8011 116.018 18.5709C116.32 19.3408 116.403 20.179 116.259 20.9931C114.261 19.5388 109.275 18.8995 103.921 20.9931C101.476 21.9361 98.008 25.2603 94.9236 28.4886L96.33 27.8813C98.7663 26.8358 101.425 26.4129 104.065 26.6507C106.403 26.9064 108.663 27.6398 110.706 28.8055C112.749 29.9711 114.53 31.5442 115.939 33.4269C118.202 36.6616 119.458 40.4922 119.551 44.4383H120.894V48.5935H119.471C117.985 59.4611 105.008 61.3789 105.008 61.3789C105.008 61.3789 109.803 64.4474 110.697 68.6346C111.592 72.8218 109.371 77.7921 107.501 80.9405C106.78 82.4248 106.368 84.0405 106.291 85.689C106.214 87.3375 106.474 88.9844 107.054 90.5295C104.207 89.5479 101.583 88.0105 99.3345 86.0067C97.8829 84.3676 97.0864 82.2509 97.0971 80.0615C97.0618 79.23 97.1644 78.3983 97.4007 77.6003C97.713 76.8048 98.1441 76.0611 98.6793 75.3948C99.1978 74.8163 99.5897 74.1359 99.8299 73.3971C99.8699 73.2452 99.8699 73.0856 99.8299 72.9337C99.8133 72.8541 99.7766 72.7801 99.7235 72.7186C99.6704 72.6571 99.6026 72.6101 99.5263 72.5821C99.4211 72.5581 99.3118 72.5581 99.2066 72.5821C98.1176 72.8975 97.1274 73.4861 96.33 74.2921C92.7341 77.041 85.1428 75.4747 85.1428 75.4747C85.4166 73.0465 86.0298 70.6686 86.9647 68.4108C88.3391 65.5341 91.3437 63.92 90.8802 62.7373C90.4167 61.5547 86.677 62.6255 82.9692 61.251C79.2615 59.8766 79.9487 55.3058 79.9487 55.3058C81.2843 55.6983 82.7045 55.6983 84.04 55.3058C86.7729 54.7145 87.8437 51.8858 93.629 52.4771C95.3859 52.661 97.0691 53.2807 98.5259 54.2798C99.9827 55.2789 101.167 56.6259 101.971 58.1985C105.759 57.2556 113.334 54.6346 115.061 48.6095H113.718C113.167 48.6095 112.639 48.3906 112.249 48.001C111.859 47.6114 111.64 47.0829 111.64 46.5319C111.64 45.9809 111.859 45.4524 112.249 45.0628C112.639 44.6732 113.167 44.4543 113.718 44.4543H115.316C114.549 36.9908 108.364 29.2397 99.7021 30.5182C95.2876 31.2684 91.1359 33.1271 87.6359 35.92C87.4475 36.1182 87.2764 36.332 87.1245 36.5593C86.9195 36.8669 86.7855 37.2163 86.7321 37.5821C86.6788 37.9479 86.7074 38.321 86.816 38.6744C86.9247 39.0278 87.1104 39.3525 87.36 39.6252C87.6097 39.8979 87.9168 40.1117 88.2592 40.2511C89.2937 40.7304 90.4123 41.0019 91.5514 41.0502C90.997 41.7058 90.246 42.1653 89.4099 42.3607C88.8108 42.4384 88.2047 42.2841 87.7158 41.9292C87.7158 41.9292 88.5468 44.5981 86.7729 45.541C86.7729 45.541 86.5971 42.3447 84.2797 41.9931C82.5697 41.7214 81.0834 42.7762 79.9807 45.0136C79.945 45.1228 79.9023 45.2296 79.8528 45.3333C77.3276 51.9796 76.4538 59.1396 77.3064 66.1981C78.1591 73.2567 80.7127 80.0027 84.7478 85.8565C88.7829 91.7104 94.179 96.4971 100.472 99.8053C106.766 103.114 113.768 104.844 120.878 104.849V109.116C113.386 109.105 105.999 107.345 99.3068 103.977C92.6142 100.609 86.7998 95.7261 82.3261 89.7161C77.8524 83.7062 74.8428 76.7352 73.5367 69.3577C72.2306 61.9802 72.6641 54.3997 74.8026 47.2191C70.3309 48.5461 65.6908 49.219 61.0264 49.2168C48.2914 49.2169 36.0749 44.1722 27.0504 35.1867C18.026 26.2012 12.9285 14.0066 12.8735 1.27173L17.0607 1.22378Z"
        stroke="#EFDBD7" stroke-width="0.5" stroke-miterlimit="10" />
    <path d="M240.725 1.06396H120.878V120.911H240.725V1.06396Z" stroke="#EFDBD7" stroke-width="0.5"
        stroke-miterlimit="10" />
    <path
        d="M236.426 1.06393C236.426 15.8143 230.566 29.9605 220.136 40.3906C209.706 50.8207 195.56 56.6802 180.809 56.6802H180.634C179.179 56.6802 177.725 56.6802 176.302 56.4885C176.414 57.9268 176.494 59.3652 176.494 60.8195V60.9953C176.473 75.7318 170.604 89.8575 160.176 100.27C149.749 110.683 135.614 116.532 120.878 116.532V120.847C128.748 120.847 136.541 119.297 143.813 116.285C151.084 113.273 157.691 108.858 163.256 103.293C168.821 97.7281 173.235 91.1213 176.247 83.8501C179.259 76.5789 180.809 68.7857 180.809 60.9154C196.701 60.9154 211.943 54.6034 223.182 43.3675C234.42 32.1317 240.736 16.892 240.741 1L236.426 1.06393Z"
        stroke="#EFDBD7" stroke-width="0.5" stroke-miterlimit="10" />
    <path
        d="M240.741 94.0614C237.211 94.0551 233.715 94.745 230.451 96.0914C227.188 97.4379 224.223 99.4146 221.725 101.908C219.226 104.402 217.244 107.364 215.892 110.625C214.54 113.885 213.844 117.381 213.844 120.911H240.693L240.741 94.0614Z"
        stroke="#EFDBD7" stroke-width="0.5" stroke-miterlimit="10" />
    <path
        d="M218.239 120.911C218.239 120.911 218.159 114.646 220.668 111.657C223.177 108.669 227.636 111.977 229.522 113.256C231.408 114.534 233.597 115.381 235.083 114.678C236.57 113.975 235.547 110.746 234.38 108.956C233.214 107.167 230.689 103.938 231.392 101.813C232.095 99.6871 234.588 97.8172 240.645 98.1369V120.911H218.239Z"
        stroke="#EFDBD7" stroke-width="0.5" stroke-miterlimit="10" />
    <path
        d="M240.741 115.285C239.249 115.285 237.818 115.878 236.763 116.933C235.708 117.988 235.115 119.419 235.115 120.911H240.741V115.285Z"
        stroke="#EFDBD7" stroke-width="0.5" stroke-miterlimit="10" />
    <path
        d="M163.581 109.532C163.581 109.532 153.497 119.121 143.604 120.927H168.999C167.269 119.582 165.878 117.851 164.937 115.872C163.996 113.894 163.532 111.722 163.581 109.532Z"
        stroke="#EFDBD7" stroke-width="0.5" stroke-miterlimit="10" />
    <path
        d="M240.693 88.8355C232.964 88.8235 225.494 91.624 219.678 96.7145L212.326 89.3629C210.296 87.3332 208.981 84.6992 208.577 81.8574C208.174 79.0155 208.704 76.1194 210.088 73.605L211.031 71.879C211.031 71.879 208.043 69.9292 205.63 71.879C204.343 72.9289 203.155 74.0952 202.082 75.363C202.034 75.4148 201.976 75.4561 201.911 75.4844C201.846 75.5127 201.777 75.5273 201.706 75.5273C201.636 75.5273 201.566 75.5127 201.501 75.4844C201.437 75.4561 201.378 75.4148 201.331 75.363L201.075 75.1073C200.166 74.1975 199.071 73.494 197.866 73.0445C196.661 72.5951 195.374 72.4101 194.091 72.5022C193.607 72.5381 193.122 72.4671 192.668 72.2945L191.55 71.879L191.965 72.9977C192.138 73.4508 192.209 73.9364 192.173 74.42C192.085 75.6978 192.271 76.9796 192.721 78.1789C193.17 79.3783 193.872 80.4672 194.778 81.3721L195.034 81.6278C195.086 81.6757 195.127 81.7338 195.155 81.7984C195.183 81.863 195.198 81.9328 195.198 82.0034C195.198 82.0739 195.183 82.1437 195.155 82.2083C195.127 82.273 195.086 82.331 195.034 82.3789C193.737 83.471 192.544 84.68 191.47 85.9908C189.52 88.388 191.47 91.3766 191.47 91.3766L193.196 90.4337C195.71 89.0493 198.606 88.519 201.448 88.9225C204.29 89.326 206.924 90.6415 208.954 92.6711L216.305 100.039C211.343 105.824 208.611 113.193 208.602 120.815H213.844C213.844 117.283 214.54 113.787 215.892 110.524C217.244 107.262 219.225 104.298 221.723 101.801C224.221 99.305 227.186 97.3253 230.45 95.9753C233.713 94.6253 237.21 93.9316 240.741 93.9337V88.8515L240.693 88.8355Z"
        stroke="#EFDBD7" stroke-width="0.5" stroke-miterlimit="10" />
    <path
        d="M201.345 120.911V114.694C201.345 112.057 197.973 109.212 193.355 109.899C188.736 110.586 188.288 114.694 182.711 114.694C177.133 114.694 175.024 111.753 175.024 109.004C174.954 108.161 175.068 107.313 175.359 106.518C175.649 105.723 176.109 105.002 176.707 104.402C177.304 103.803 178.025 103.342 178.819 103.049C179.613 102.756 180.461 102.64 181.304 102.707C182.589 102.603 183.878 102.855 185.028 103.436C186.179 104.017 187.147 104.904 187.825 106C188.468 104.359 188.803 102.615 188.816 100.854C188.816 98.1687 184.836 96.0591 181.624 97.1458C181.624 97.1458 183.638 94.7166 185.188 92.4472C186.568 90.5332 187.194 88.1774 186.946 85.8308C186.738 83.6573 183.845 81.7075 182.919 81.292C182.427 83.871 181.427 86.3266 179.978 88.5157C177.756 91.5682 174.033 96.2189 171.811 98.744C170.453 100.482 169.571 102.545 169.255 104.729C168.938 106.913 169.197 109.141 170.005 111.194C172.133 115.525 175.721 118.966 180.138 120.911H201.345Z"
        stroke="#EFDBD7" stroke-width="0.5" stroke-miterlimit="10" />
    <path
        d="M229.347 44.3744C229.347 44.3744 238.936 34.2899 240.742 24.3813V49.7922C239.4 48.0593 237.669 46.6662 235.69 45.7251C233.711 44.784 231.538 44.3213 229.347 44.3744Z"
        stroke="#EFDBD7" stroke-width="0.5" stroke-miterlimit="10" />
    <path
        d="M240.646 82.0433H234.429C231.808 82.0433 228.963 78.6711 229.634 74.0524C230.306 69.4337 234.429 68.9862 234.429 63.4086C234.429 57.831 231.424 55.8013 228.755 55.8013C227.911 55.7286 227.062 55.841 226.266 56.1306C225.47 56.4203 224.747 56.8803 224.147 57.4785C223.548 58.0766 223.086 58.7985 222.794 59.5937C222.503 60.3888 222.388 61.2381 222.459 62.0821C222.355 63.3626 222.606 64.6468 223.184 65.794C223.762 66.9413 224.644 67.9075 225.735 68.5867C224.101 69.232 222.361 69.568 220.605 69.5775C217.92 69.5775 215.81 65.5981 216.881 62.3858C216.881 62.3858 214.452 64.3995 212.182 65.9497C210.268 67.3298 207.913 67.9558 205.566 67.7077C203.408 67.4999 201.443 64.6072 201.027 63.6803C203.607 63.1912 206.063 62.1914 208.251 60.7397C211.303 58.5182 215.954 54.7945 218.479 52.573C220.218 51.2143 222.281 50.333 224.464 50.0163C226.648 49.6995 228.876 49.9583 230.929 50.7671C235.26 52.8949 238.701 56.4831 240.646 60.8995V82.0433Z"
        stroke="#EFDBD7" stroke-width="0.5" stroke-miterlimit="10" />
    <path
        d="M224.695 1.22378C224.649 12.834 220.005 23.953 211.78 32.1478C203.556 40.3425 192.42 44.9456 180.809 44.9497C175.472 44.9538 170.18 43.9788 165.195 42.073L164.3 41.7374C163.693 41.3856 163.203 40.8633 162.891 40.2354C162.578 39.6075 162.457 38.9016 162.542 38.2054C162.91 35.8721 166.074 35.6963 166.074 35.6963C165.147 33.9223 162.478 34.7534 162.478 34.7534C162.825 34.2605 162.978 33.6578 162.91 33.0593C162.714 32.2232 162.255 31.4723 161.599 30.9178C161.551 32.0587 161.273 33.1782 160.784 34.21C160.622 34.5687 160.381 34.8855 160.077 35.1361C159.774 35.3867 159.417 35.5643 159.034 35.6554C158.651 35.7464 158.253 35.7485 157.869 35.6614C157.485 35.5743 157.127 35.4003 156.821 35.1529C153.722 31.4522 151.66 26.9966 150.844 22.2397C149.565 13.5936 157.316 7.4087 164.78 6.6256V8.22377C164.825 8.74539 165.065 9.23095 165.451 9.58468C165.837 9.93841 166.342 10.1346 166.865 10.1346C167.389 10.1346 167.894 9.93841 168.28 9.58468C168.666 9.23095 168.905 8.74539 168.951 8.22377V6.86532C174.976 8.59134 177.597 16.1667 178.54 19.9543C176.998 20.7536 175.676 21.9191 174.689 23.3486C173.703 24.778 173.082 26.4277 172.882 28.1529C172.307 34.0022 175.136 35.073 175.711 37.742C176.104 39.0775 176.104 40.4977 175.711 41.8333C175.711 41.8333 180.298 42.5205 181.656 38.8127C183.015 35.105 181.96 31.3493 183.143 30.9018C184.325 30.4543 185.939 33.4429 188.816 34.8173C191.077 35.7439 193.453 36.3569 195.88 36.6392C195.88 36.6392 197.478 29.1118 194.697 25.452C193.936 24.6901 193.376 23.751 193.067 22.7192C193.036 22.6095 193.036 22.4932 193.067 22.3835C193.095 22.3099 193.14 22.244 193.198 22.1912C193.257 22.1384 193.327 22.1002 193.403 22.0799C193.555 22.0399 193.714 22.0399 193.866 22.0799C194.61 22.31 195.292 22.7031 195.864 23.2306C196.531 23.7608 197.275 24.1865 198.07 24.4931C198.864 24.7449 199.699 24.8478 200.531 24.7968C202.72 24.821 204.839 24.029 206.476 22.5753C208.48 20.3271 210.017 17.7033 210.999 14.8562C209.453 15.4354 207.805 15.6931 206.156 15.6134C204.508 15.5337 202.892 15.1184 201.41 14.3927C198.213 12.5868 193.291 10.4133 189.104 11.1964C184.917 11.9795 181.848 16.8858 181.848 16.8858C181.848 16.8858 179.898 3.90871 169.063 2.40643V1.06396H164.78V2.42241C156.373 3.07766 148.574 7.69637 147.2 16.8059C146.736 20.2014 147.223 23.659 148.606 26.7945C145.41 23.8059 141.974 20.4018 140.983 17.8927C138.905 12.5388 139.529 7.53655 140.983 5.53884C140.17 5.40128 139.334 5.48947 138.568 5.79381C137.801 6.09815 137.133 6.60697 136.636 7.26486C135.807 8.27027 135.41 9.5634 135.533 10.8607C135.54 11.0312 135.492 11.1995 135.397 11.3409C135.301 11.4822 135.163 11.5894 135.002 11.6465C134.842 11.7037 134.667 11.7079 134.504 11.6585C134.34 11.6091 134.197 11.5088 134.095 11.3722C132.752 9.56623 132.177 7.02514 130.163 5.85847C129.222 5.33737 128.202 4.97556 127.143 4.7877C126.289 4.80011 125.434 4.7574 124.586 4.65985C124.694 5.50247 124.748 6.35132 124.746 7.20094C124.935 8.25221 125.291 9.26649 125.8 10.2055C126.983 12.2192 129.524 12.7945 131.33 14.137C131.467 14.2392 131.567 14.3824 131.616 14.5457C131.666 14.709 131.662 14.8839 131.604 15.0446C131.547 15.2054 131.44 15.3436 131.299 15.4391C131.157 15.5346 130.989 15.5824 130.819 15.5753C129.529 15.4544 128.242 15.8319 127.223 16.6301C126.561 17.1276 126.049 17.7983 125.745 18.5683C125.44 19.3383 125.354 20.1775 125.497 20.9931C127.494 19.5388 132.481 18.8995 137.835 20.9931C140.28 21.9361 143.748 25.2603 146.832 28.4886L145.426 27.8813C142.989 26.8358 140.331 26.4129 137.691 26.6507C135.356 26.9085 133.098 27.6429 131.058 28.8085C129.019 29.9741 127.24 31.546 125.832 33.4269C123.562 36.6755 122.305 40.5239 122.22 44.4862H120.878V48.6415H122.3C123.787 59.509 136.78 61.4268 136.78 61.4268C136.78 61.4268 131.985 64.4953 131.074 68.6825C130.163 72.8697 132.401 77.84 134.271 80.9884C134.993 82.4722 135.406 84.0872 135.486 85.7354C135.565 87.3837 135.31 89.0309 134.734 90.5774C137.581 89.5958 140.205 88.0585 142.453 86.0546C143.894 84.41 144.684 82.2957 144.675 80.1094C144.71 79.2779 144.607 78.4463 144.371 77.6483C144.059 76.8527 143.628 76.1091 143.093 75.4428C142.574 74.8643 142.182 74.1838 141.942 73.4451C141.91 73.2922 141.91 73.1344 141.942 72.9816C141.964 72.9047 142.003 72.8334 142.055 72.7728C142.108 72.7121 142.173 72.6634 142.245 72.63C142.351 72.606 142.46 72.606 142.565 72.63C143.654 72.9454 144.644 73.5341 145.442 74.34C149.038 77.0889 156.629 75.5227 156.629 75.5227C156.319 73.0959 155.674 70.7239 154.711 68.4748C153.337 65.5981 150.348 63.9839 150.796 62.8013C151.243 61.6186 155.015 62.6894 158.787 61.315C162.558 59.9405 161.807 55.3698 161.807 55.3698C160.471 55.7613 159.051 55.7613 157.716 55.3698C154.983 54.7784 153.896 51.9497 148.047 52.541C146.324 52.7409 144.676 53.3615 143.249 54.3481C141.822 55.3346 140.66 56.6569 139.864 58.1985C136.077 57.2556 128.485 54.6346 126.759 48.6095H128.118C128.669 48.6095 129.197 48.3906 129.587 48.001C129.976 47.6114 130.195 47.0829 130.195 46.5319C130.195 45.9809 129.976 45.4524 129.587 45.0628C129.197 44.6732 128.669 44.4543 128.118 44.4543H126.519C127.287 36.9908 133.472 29.2397 142.134 30.5182C146.552 31.2719 150.708 33.13 154.216 35.92C154.404 36.1182 154.575 36.332 154.727 36.5593C154.935 36.8671 155.071 37.2177 155.124 37.585C155.178 37.9523 155.149 38.3271 155.038 38.6815C154.928 39.036 154.739 39.3611 154.486 39.6327C154.233 39.9044 153.922 40.1157 153.577 40.2511C152.547 40.7295 151.434 41.001 150.3 41.0502C150.847 41.7073 151.593 42.1675 152.426 42.3607C153.025 42.4418 153.632 42.2871 154.12 41.9292C154.12 41.9292 153.305 44.5981 155.063 45.541C155.063 45.541 155.239 42.3447 157.572 41.9931C159.282 41.7214 160.768 42.7762 161.855 45.0136L161.983 45.3333C164.516 51.9794 165.396 59.1416 164.547 66.2033C163.697 73.2649 161.145 80.0143 157.108 85.8704C153.071 91.7264 147.672 96.5136 141.374 99.8197C135.077 103.126 128.07 104.852 120.958 104.849V109.116C128.46 109.119 135.86 107.368 142.566 104.003C149.272 100.639 155.099 95.7542 159.582 89.7386C164.066 83.7229 167.081 76.7428 168.389 69.3551C169.696 61.9673 169.259 54.3761 167.113 47.1871C171.585 48.5141 176.225 49.187 180.889 49.1849C193.626 49.1892 205.844 44.1458 214.87 35.1594C223.895 26.173 228.991 13.976 229.042 1.23976L224.695 1.22378Z"
        stroke="#EFDBD7" stroke-width="0.5" stroke-miterlimit="10" />
</svg>